<svg aria-hidden="true" class="w-5 h-5" viewBox="0 0 100 100" xmlns="http://www.w3.org/2000/svg"><g clip-path="url(#clip0_427_364)"><path fill-rule="evenodd" clip-rule="evenodd" d="M99.1076 40.0196H51.0565C51.0565 45.0168 51.0564 55.0102 51.0258 60.0074H78.8702C77.8032 65.0046 74.0202 72.0019 68.6749 75.5249C68.6749 75.5249 68.6647 75.5544 68.6545 75.5494C61.5479 80.2418 52.1695 81.3065 45.2058 79.9073C34.2907 77.7385 25.6524 69.8225 22.145 59.7681C22.1655 59.7531 22.1809 59.6145 22.1962 59.6045C20.0009 53.368 20.0009 45.0168 22.1962 40.0196H22.1911C25.0194 30.8348 33.9179 22.4549 44.8484 20.1612C53.6397 18.2972 63.5594 20.315 70.8549 27.1412C71.8249 26.1917 84.2818 14.029 85.216 13.0396C60.2919 -9.5327 20.3837 -1.5924 5.45071 27.5562H5.4456C5.4456 27.5562 5.45075 27.5574 5.42012 27.6123C-1.96727 41.9293 -1.66096 58.7993 5.47116 72.4317C5.45074 72.4466 5.43544 72.4557 5.42012 72.4707C11.8834 85.0137 23.6461 94.633 37.8184 98.2959C52.874 102.244 72.0341 99.5455 84.8689 87.9371L84.8843 87.9517C95.7586 78.1572 102.528 61.4725 99.1076 40.0196Z" fill="white"/></g><defs><clipPath id="clip0_427_364"><rect width="100" height="100" fill="white"/></clipPath></defs></svg>