<svg aria-hidden="true" class="w-5 h-5" fill="currentColor" viewBox="0 0 100 100" xmlns="http://www.w3.org/2000/svg"><g clip-path="url(#clip0_2166_2)"><path d="M0.000117188 75C0.000117188 76.7333 0.600117 78.2333 1.80012 79.5C3.00012 80.7667 4.50012 81.3667 6.30012 81.3H12.5001C16.7668 81.3 20.8335 80.4667 24.7001 78.8C28.5668 77.1333 31.8668 74.9 34.6001 72.1C37.3335 69.3 39.5668 65.9667 41.3001 62.1C43.0335 58.2333 43.8668 54.2 43.8001 50C43.8001 44.8667 45.6001 40.4667 49.2001 36.8C52.8001 33.1333 57.2335 31.3 62.5001 31.3H75.0001V37.5C75.0001 38.9 75.4001 40.1 76.2001 41.1C77.0001 42.1 77.9001 42.8333 78.9001 43.3C79.9001 43.7667 81.0668 43.9 82.4001 43.7C83.7335 43.5 84.8335 42.9333 85.7001 42L98.2001 29.5C99.4668 28.1667 100.067 26.6667 100 25C99.9334 23.3333 99.3335 21.8667 98.2001 20.6L85.7001 8.1C84.7001 7.16666 83.5668 6.6 82.3001 6.4C81.0335 6.2 79.8668 6.33333 78.8001 6.8C77.7335 7.26666 76.8335 8 76.1001 9C75.3668 10 75.0001 11.1667 75.0001 12.5V18.8H62.5001C58.3001 18.8 54.2668 19.6333 50.4001 21.3C46.5335 22.9667 43.2001 25.1667 40.4001 27.9C37.6001 30.6333 35.3668 33.9667 33.7001 37.9C32.0335 41.8333 31.2334 45.8667 31.3001 50C31.3001 55.2 29.4668 59.6333 25.8001 63.3C22.1334 66.9667 17.7001 68.8 12.5001 68.8H6.30012C4.56678 68.8 3.06678 69.4 1.80012 70.6C0.53345 71.8 -0.0665495 73.2667 0.000117188 75ZM0.000117188 25.1C0.000117188 26.8333 0.600117 28.3 1.80012 29.5C3.00012 30.7 4.50012 31.3 6.30012 31.3H12.5001C15.4334 31.3 18.1334 31.9333 20.6001 33.2C23.0668 34.4667 25.2335 36.2 27.1001 38.4C28.5001 34.1333 30.5668 30.3 33.3001 26.9C27.2335 21.5 20.3001 18.8 12.5001 18.8H6.30012C4.56678 18.8 3.06678 19.4333 1.80012 20.7C0.53345 21.9667 -0.0665495 23.4333 0.000117188 25.1ZM41.8001 73.3C47.7335 78.6333 54.6335 81.3 62.5001 81.3H75.0001V87.6C75.0001 88.9333 75.4001 90.1333 76.2001 91.2C77.0001 92.2667 77.9001 93 78.9001 93.4C79.9001 93.8 81.0668 93.9 82.4001 93.7C83.7335 93.5 84.8335 92.9333 85.7001 92L98.2001 79.5C99.4668 78.2333 100.067 76.7333 100 75C99.9334 73.2667 99.3335 71.8333 98.2001 70.7L85.7001 58.2C84.7001 57.2 83.5668 56.6 82.3001 56.4C81.0335 56.2 79.8668 56.3333 78.8001 56.8C77.7335 57.2667 76.8335 58.0333 76.1001 59.1C75.3668 60.1667 75.0001 61.3333 75.0001 62.6V68.8H62.5001C59.6334 68.8 56.9335 68.2 54.4001 67C51.8668 65.8 49.7335 64.0667 48.0001 61.8C46.5335 66.0667 44.4668 69.9 41.8001 73.3Z" fill="white"/></g><defs><clipPath id="clip0_2166_2"><rect width="100" height="100" fill="white"/></clipPath></defs></svg>