<svg xmlns="http://www.w3.org/2000/svg" class="w-32 h-32 min-w-[96px] min-h-[96px]" fill="black" viewBox="0 0 356 356"><g clip-path="url(#clip0_692_709)"><g clip-path="url(#clip1_692_709)"><path d="M268 0H88C39.3989 0 0 39.3989 0 88V268C0 316.601 39.3989 356 88 356H268C316.601 356 356 316.601 356 268V88C356 39.3989 316.601 0 268 0Z" fill="#66BF91"/><path d="M17 292.878V280.17C19.8792 265.707 27.7868 255.067 40.9841 248.365C44.2048 246.731 44.5931 243.49 42.1894 240.196C37.0136 233.085 31.8244 225.994 26.6218 218.91C20.4081 210.44 20.08 199.398 25.7112 191.115C30.1973 184.52 36.5984 181.44 44.332 181.018C46.8295 180.884 48.0482 179.82 48.4298 177.57C48.8717 174.938 49.0793 172.267 49.5681 169.649C51.3893 159.88 53.4851 150.211 59.8126 142.102C66.7427 133.23 74.0075 124.666 82.5513 117.294C84.5466 115.573 85.1493 114.435 82.6183 112.808C81.1318 111.85 79.6052 110.799 78.4602 109.473C68.9924 98.5124 67.506 80.8623 79.0427 69.1379C80.5493 67.6113 80.1676 66.9819 78.7481 65.8235C64.3322 54.0857 65.0353 32.4985 79.9467 21.3901C84.5801 17.9418 89.997 17.4329 95.213 16H97.2217C102.813 17.3793 108.39 18.4306 113.312 22.0061C120.108 26.9409 126.562 41.4976 123.114 49.3585C120.034 56.3824 123.295 62.6028 126.174 68.3813C128.069 72.1778 131.832 75.1508 134.45 78.7598C135.381 80.0387 136.579 79.5097 137.738 78.9138C147.949 73.6509 158.555 69.312 169.462 65.7498C180.543 62.1341 191.846 59.8174 203.597 61.5181C208.338 62.2011 213.031 63.1184 217.618 64.5379C220.323 65.3749 221.99 65.0803 222.378 61.6654C222.673 59.054 223.604 56.4895 225.13 54.2063C234.96 39.509 253.902 38.8729 264.468 53.0814C275.496 67.9126 286.309 82.9112 297.21 97.8362C300.524 102.376 303.625 106.574 309.483 108.904C318.77 112.594 327.013 118.64 335.048 124.539C340.947 128.871 344.415 135.902 346.504 142.852C348.238 148.617 348.017 154.958 348.801 161.024C349.156 163.797 348.754 166.749 351.553 168.879C356.092 172.334 357.378 177.697 355.912 183.248C354.847 187.279 352.162 189.683 348.868 191.705C346.384 193.231 345.172 195.113 345.674 198.32C346.223 201.815 346.129 205.438 345.56 208.98C343.618 221.046 338.771 232.02 332.423 242.318C330.635 245.218 331.131 246.376 333.856 247.903C354.204 259.332 370.716 275.034 384.154 293.997C393.943 307.817 398.168 323.425 397.827 340.271C397.773 342.869 398.282 345.012 399.595 347.195C403.786 354.152 407.917 361.155 411.942 368.213C414.432 372.592 414.466 377.266 412.209 381.678C411.018 384.002 411.406 385.555 412.859 387.396C416.381 391.849 419.99 396.248 423.204 400.915C427.342 406.928 425.715 418.78 415.711 420.942C413.281 421.465 410.897 421.337 408.607 421.224C408.092 421.953 408.467 422.456 408.594 422.971C411.058 433.022 413.937 442.972 416.113 453.102C418.979 466.414 421.235 479.798 420.88 493.465C420.626 503.341 419.816 513.512 414.024 521.634C409.678 527.734 410.341 531.905 414.272 537.342C417.559 541.895 417.486 547.205 414.7 552.194C413.716 553.961 413.93 555.187 415.182 556.68C418.477 560.597 421.63 564.628 424.831 568.625C429.592 574.571 429.525 583.014 424.697 587.574C419.662 592.335 410.663 592.208 405.152 587.233C403.17 585.445 401.342 583.483 399.421 581.628C384.576 567.353 369.631 553.178 354.921 538.762C349.316 533.271 343.538 528.296 336.407 524.788C331.037 522.143 326.015 518.741 321.02 515.407C299.801 501.232 279.855 485.396 260.464 468.817C239.895 451.234 219.975 432.935 200.383 414.273C196.151 410.242 192.248 405.837 186.931 401.665C187.695 406.178 186.784 409.647 185.063 412.948C184.333 414.354 185.083 415.452 185.947 416.577C189.757 421.511 193.701 426.353 197.209 431.495C200.503 436.323 200.597 441.606 197.49 446.614C194.759 451.02 190.493 452.741 185.438 452.118C181.702 451.656 178.434 449.942 175.716 447.31C159.559 431.669 143.355 416.074 127.332 400.292C124.514 397.514 121.433 395.739 117.737 394.688C95.3067 388.34 75.8623 376.603 58.9689 360.821C38.8817 342.052 24.8273 319.347 17.0067 292.885L17 292.878Z" fill="white"/><path d="M102.554 36.3126C102.494 38.6495 101.931 41.609 100.03 44.4882C97.6994 48.0236 94.4587 49.7779 91.8942 50.6484C89.8521 51.3448 88.2384 51.472 87.8701 51.4988L89.4369 49.3427L100.425 34.2168L102.005 32.0474L102.092 31.9202C102.105 31.9804 102.125 32.0541 102.145 32.1478C102.306 32.8107 102.607 34.3441 102.554 36.3126Z" fill="#287C58"/><path d="M128.964 219.788C123.045 222.252 115.285 217.11 111.629 208.318C107.973 199.52 109.808 190.401 115.727 187.937C121.646 185.479 129.399 190.615 133.055 199.413C136.711 208.211 134.876 217.331 128.964 219.788Z" fill="black"/><path d="M118.58 205.626C120.437 204.996 121.114 202.047 120.094 199.039C119.074 196.031 116.743 194.102 114.887 194.732C113.031 195.361 112.353 198.31 113.373 201.318C114.393 204.326 116.724 206.255 118.58 205.626Z" fill="white"/><path d="M189.842 183.147C183.93 185.611 176.17 180.469 172.514 171.677C168.858 162.879 170.693 153.759 176.605 151.295C182.524 148.838 190.284 153.974 193.94 162.772C197.596 171.57 195.761 180.69 189.842 183.147Z" fill="black"/><path d="M179.469 168.935C181.325 168.306 182.003 165.357 180.983 162.349C179.963 159.34 177.631 157.412 175.775 158.041C173.919 158.67 173.241 161.619 174.261 164.628C175.281 167.636 177.613 169.565 179.469 168.935Z" fill="white"/><path d="M220.457 223.762C219.526 218.68 216.199 206.326 205.492 201.391C192.991 195.626 179.921 204.049 166.081 212.968C155.562 219.744 146.482 225.603 145.525 235.895C144.875 242.838 148.13 249.849 155.2 256.732C162.104 263.455 172.649 268.195 183.671 268.195C189.697 268.195 195.864 266.782 201.662 263.495C215.576 255.614 223.303 239.276 220.457 223.762ZM158.937 252.895C156.76 250.773 150.118 244.305 150.855 236.397C151.578 228.69 159.258 223.742 168.98 217.474C178.957 211.046 188.485 204.9 196.908 204.9C199.098 204.9 201.22 205.315 203.249 206.252C205.566 207.323 210.601 210.511 213.607 218.8C207.675 221.284 199.459 226.206 192.871 235.781C185.666 246.26 184.126 257.221 183.851 262.852C174.23 262.926 164.983 258.781 158.937 252.895ZM199.024 258.835C195.857 260.629 192.563 261.767 189.248 262.357C189.59 257.114 191.13 247.766 197.283 238.821C203.135 230.324 210.534 226.005 215.047 224.016C215.094 224.251 215.141 224.485 215.188 224.726C217.591 237.823 210.788 252.172 199.024 258.835Z" fill="black"/><path d="M213.619 218.815C207.687 221.299 199.471 226.221 192.882 235.796C185.678 246.274 184.138 257.236 183.863 262.867C174.242 262.94 164.995 258.796 158.949 252.91C156.772 250.787 150.13 244.319 150.867 236.412C151.59 228.705 159.27 223.757 168.992 217.489C178.969 211.061 188.497 204.915 196.92 204.915C199.11 204.915 201.232 205.33 203.261 206.267C205.578 207.338 210.613 210.526 213.619 218.815Z" fill="black"/><path d="M199.014 258.839C195.847 260.634 192.553 261.772 189.238 262.361C189.58 257.118 191.12 247.771 197.273 238.825C203.125 230.328 210.524 226.01 215.037 224.021C215.084 224.255 215.131 224.49 215.178 224.731C217.581 237.828 210.779 252.177 199.014 258.839Z" fill="#D72D2D"/><path d="M123.618 104.117C123.558 104.117 123.498 104.117 123.437 104.117C121.964 104.017 120.846 102.744 120.947 101.265C121.462 93.5041 118.744 86.3731 113.97 81.9806C113.876 87.4109 112.336 92.0779 109.283 95.5531C105.861 99.45 97.7928 104.412 90.7221 101.144C83.4506 97.7828 81.1338 87.5984 83.9929 81.0767C85.861 76.8249 89.9722 73.805 95.5765 72.5663C99.3127 71.7427 103.511 71.7762 107.267 72.6199C105.774 67.0222 102.995 60.9022 99.0382 54.8425C98.228 53.6038 98.5762 51.9432 99.8149 51.133C101.054 50.3228 102.714 50.671 103.524 51.9097C108.754 59.9112 112.068 67.8391 113.36 74.9433C121.864 79.7576 127.06 90.1696 126.297 101.613C126.203 103.026 125.024 104.11 123.625 104.11L123.618 104.117ZM101.234 77.2132C95.0944 77.2132 90.2534 80.1259 88.8942 83.2261C87.0997 87.3172 88.6531 94.2875 92.9652 96.2762C97.1098 98.1912 102.748 94.8634 105.252 92.011C107.977 88.9175 108.975 84.1568 108.379 78.5189C108.285 78.4854 108.185 78.4452 108.091 78.4118C105.707 77.5748 103.39 77.2132 101.234 77.2132Z" fill="black"/><path d="M253.605 58.0808C250.257 53.5076 243.816 52.5099 239.242 55.8511C234.669 59.199 233.665 65.6404 237.013 70.2136L254.509 94.1443L261.446 103.639L266.307 110.288L279.43 128.239C280.267 126.451 281.345 124.885 282.665 123.586L277.515 116.535L272.038 109.042L267.566 102.922L241.338 67.0532C240.622 66.0689 240.32 64.9038 240.407 63.7789C240.407 63.7588 240.407 63.7455 240.414 63.7254C240.535 62.3594 241.211 61.0471 242.403 60.1766C243.28 59.5405 244.291 59.2325 245.302 59.2325C246.822 59.2325 248.315 59.9289 249.279 61.2479L291.905 119.561C294.221 119.407 296.685 119.729 299.21 120.479L253.605 58.0808Z" fill="black"/><path d="M70.6538 230.917C70.3725 229.772 70.098 228.64 69.8436 227.502C69.2744 225.045 68.7656 222.594 68.3169 220.184L68.2098 219.588L60.5699 209.135L51.7851 197.116C49.8634 194.478 46.7565 192.905 43.4823 192.905C41.2861 192.905 39.1903 193.594 37.4226 194.887C32.8494 198.235 31.8517 204.676 35.1929 209.249L56.7935 238.798L60.9248 244.449L62.7528 240.063C63.737 237.713 65.1699 235.979 67.018 234.914C67.5804 234.586 68.1964 234.318 68.8459 234.118L71.2698 233.374L70.6538 230.917ZM60.0075 234.124L59.5923 233.562L39.5184 206.089C37.9181 203.899 38.3935 200.813 40.5897 199.212C41.4334 198.59 42.4378 198.261 43.4823 198.261C45.0759 198.261 46.5289 198.998 47.4596 200.277L62.2506 220.505L63.1679 221.764C63.6366 224.248 64.1723 226.766 64.7615 229.283C64.8084 229.511 64.8619 229.732 64.9155 229.959C64.7213 230.06 64.5271 230.167 64.3397 230.274C64.333 230.281 64.3196 230.288 64.3129 230.294C62.6456 231.258 61.206 232.537 60.0075 234.124Z" fill="black"/><path d="M64.1643 229.631C64.1175 229.658 64.0706 229.684 64.0237 229.711C62.3163 230.695 60.8432 231.994 59.6112 233.581L39.5373 206.109C37.937 203.919 38.4124 200.832 40.6086 199.232C41.4523 198.609 42.4567 198.281 43.5012 198.281C45.0948 198.281 46.5478 199.018 47.4785 200.297L62.2694 220.525C62.3163 220.786 62.3632 221.047 62.41 221.301C62.9256 224.047 63.5082 226.832 64.1643 229.631Z" fill="#D4D4D4"/><path d="M102.152 32.1615C102.105 32.128 102.058 32.0945 102.011 32.0611C100.043 30.6416 97.6256 29.8113 95.0142 29.8113C88.3653 29.8113 82.9819 35.2014 82.9819 41.8436C82.9819 48.4859 88.3653 53.876 95.0142 53.876C101.663 53.876 107.04 48.4926 107.04 41.8436C107.04 37.873 105.118 34.351 102.152 32.1615ZM95.0142 51.1977C93.9228 51.1977 92.8716 51.0102 91.9007 50.662C94.4652 49.7916 97.7059 48.0373 100.036 44.5019C101.938 41.6227 102.5 38.6631 102.56 36.3263C103.692 37.873 104.362 39.7813 104.362 41.8436C104.362 46.9994 100.17 51.1977 95.0142 51.1977Z" fill="#3AB984"/><path d="M95.0342 27.1191C86.919 27.1191 80.3237 33.7212 80.3237 41.8299C80.3237 49.9385 86.919 56.5406 95.0342 56.5406C103.149 56.5406 109.738 49.9452 109.738 41.8299C109.738 33.7145 103.143 27.1191 95.0342 27.1191ZM95.0342 51.184C93.9428 51.184 92.8916 50.9965 91.9207 50.6483C91.0302 50.3336 90.2066 49.8917 89.4634 49.3426C87.1667 47.6352 85.6803 44.9033 85.6803 41.8299C85.6803 36.6741 89.8718 32.4758 95.0342 32.4758C97.0496 32.4758 98.9244 33.1186 100.451 34.2167C101.268 34.7926 101.984 35.5023 102.58 36.3125C103.712 37.8593 104.381 39.7676 104.381 41.8299C104.381 46.9857 100.19 51.184 95.0342 51.184Z" fill="black"/><path d="M104.358 41.8523C104.358 47.0081 100.166 51.2064 95.0107 51.2064C93.9193 51.2064 92.8681 51.0189 91.8972 50.6708C94.4617 49.8003 97.7024 48.046 100.033 44.5106C101.934 41.6314 102.497 38.6718 102.557 36.335C103.688 37.8817 104.358 39.79 104.358 41.8523Z" fill="#287C58"/><path d="M331.781 190.475C331.326 188.968 330.857 187.509 330.382 186.15L327.221 187.254L324.061 188.359C324.135 188.567 324.208 188.774 324.275 188.989C324.644 190.067 325.012 191.212 325.367 192.397C327.382 199.126 327.228 206.331 324.925 212.678C322.729 218.705 319.776 224.878 316.14 231.025L315.886 231.306L315.779 231.634C312.303 237.46 308.206 243.312 303.592 249.037C301.436 251.715 299.146 254.393 296.783 257.005C295.926 257.949 295.062 258.893 294.171 259.831C282.708 272.017 269.243 283.219 254.158 293.136C235.336 305.509 214.995 315.091 195.329 320.836C183.639 324.251 172.336 326.3 161.737 326.923H161.637C155.329 327.291 149.296 327.137 143.706 326.474L143.21 326.414C142.654 326.36 138.757 325.965 134.961 324.941C133.053 324.425 128.285 322.162 121.958 317.194C116.789 313.143 110.582 307.291 104.02 299.135L103.933 299.028C103.464 298.439 102.989 297.836 102.514 297.227L97.2239 301.338C97.619 301.847 98.014 302.349 98.4091 302.845C101.302 306.48 104.114 309.661 106.792 312.453C107.669 313.364 108.533 314.227 109.377 315.058C110.267 315.928 111.144 316.758 112.001 317.542C124.429 328.918 133.1 331.375 133.22 331.409C137.191 332.474 141.121 332.936 142.326 333.056L142.5 333.11H142.828C146.739 333.578 150.843 333.813 155.088 333.813C157.331 333.813 159.615 333.753 161.925 333.619H162.032C173.16 332.962 184.998 330.826 197.204 327.264C217.499 321.332 238.47 311.469 257.841 298.733C273.361 288.529 287.228 276.985 299.046 264.424C299.963 263.453 300.867 262.475 301.751 261.498C303.378 259.69 304.985 257.855 306.532 256.007C307.295 255.103 308.045 254.193 308.775 253.282C308.781 253.269 308.788 253.255 308.802 253.242C309.525 252.345 310.234 251.441 310.931 250.537C314.875 245.448 318.423 240.265 321.51 235.103L321.778 234.828L321.912 234.413C325.755 227.918 328.882 221.376 331.219 214.962C334.004 207.268 334.205 198.577 331.781 190.475ZM267.556 102.934C264.242 100.55 259.756 97.4565 254.499 94.1555C239.026 84.4465 216.849 72.9631 198.001 72.5145C190.368 72.3404 183.491 73.3381 183.203 73.3783L182.822 73.4586C171.466 76.5186 159.936 80.804 148.547 86.1941C141.007 89.763 133.562 93.8073 126.337 98.2466C124.529 99.3581 122.728 100.496 120.947 101.668C120.706 101.815 120.471 101.976 120.23 102.13C112.289 107.353 104.649 113.058 97.5386 119.091C89.872 125.586 82.788 132.489 76.4806 139.607C74.1907 142.191 71.9744 144.83 69.9054 147.454C66.7785 151.418 64.5422 155.878 63.2566 160.719C59.4601 175.014 58.5629 191.573 60.585 209.17C61.0068 212.919 61.5693 216.709 62.2656 220.539C62.3125 220.8 62.3594 221.062 62.4062 221.316C62.9218 224.061 63.5043 226.847 64.1605 229.646C64.2141 229.873 64.2676 230.101 64.3279 230.329C64.4819 231.018 64.6493 231.715 64.8234 232.404L70.6687 230.945L71.3182 230.784C70.4277 227.202 69.6443 223.599 68.9948 220.097C66.7584 208.072 65.8746 196.434 66.3433 185.574C66.6982 177.351 67.8298 169.577 69.7246 162.433C70.7759 158.489 72.6038 154.84 75.1549 151.606C77.1502 149.081 79.2794 146.537 81.489 144.053C87.5888 137.169 94.4452 130.487 101.864 124.193C108.774 118.341 116.193 112.797 123.913 107.728C132.758 101.909 142.012 96.6999 151.412 92.2471C162.373 87.0579 173.461 82.9332 184.362 79.9804C185.473 79.8264 191.459 79.0563 197.84 79.2103C206.973 79.4246 218.309 82.7123 231.078 88.7988C234.914 90.6334 238.892 92.7158 242.969 95.046C253.334 100.972 261.865 107.011 266.297 110.299C267.77 111.391 268.788 112.181 269.284 112.569L272.029 109.054L267.556 102.934Z" fill="black"/><path d="M289.182 196.978C287.796 192.344 285.915 187.584 283.605 182.836C280.766 177.018 277.277 171.186 273.22 165.507C268.138 158.39 262.219 151.574 255.643 145.253C254.565 144.215 253.594 143.298 252.657 142.447C233.621 125.078 211.371 113.521 191.612 110.736C187.634 110.173 183.711 110.408 179.934 111.426C179.519 111.533 179.117 111.646 178.736 111.754C170.861 113.95 162.847 116.963 154.912 120.719C147.868 124.054 140.918 127.964 134.249 132.35C128.45 136.16 122.88 140.318 117.684 144.724C110.037 151.205 103.248 158.176 97.5026 165.447C95.1524 168.413 93.4718 171.768 92.5076 175.411C87.7268 193.429 89.3472 216.697 96.967 239.235C97.7437 241.532 98.5673 243.808 99.431 245.991C101.714 251.823 106.468 263.963 116.492 277.187C131.383 296.852 143.811 300.388 143.938 300.421C146.77 301.184 149.576 301.533 150.587 301.64L150.761 301.693H151.096C153.968 302.035 156.968 302.209 160.055 302.209C161.688 302.209 163.356 302.162 165.043 302.062H165.143C173.299 301.586 181.956 300.019 190.875 297.408C205.7 293.083 220.999 285.885 235.141 276.591C247.374 268.542 258.161 259.396 267.187 249.413C272.477 243.567 277.05 237.541 280.799 231.475H280.967L281.831 229.78C284.703 224.933 287.04 220.072 288.761 215.324C289.886 212.231 290.448 208.923 290.448 205.582C290.448 202.696 290.026 199.79 289.182 196.978ZM282.467 213.041C281.074 216.884 279.233 220.821 276.996 224.779H276.876L276.005 226.473C272.316 232.693 267.676 238.893 262.219 244.92C253.574 254.488 243.223 263.259 231.465 270.993C217.873 279.925 203.189 286.835 189 290.98C180.597 293.437 172.475 294.917 164.855 295.366H164.748C160.296 295.634 156.01 295.527 152.006 295.058L151.799 294.991H151.424C150.814 294.931 148.216 294.643 145.685 293.96C145.632 293.94 142.518 292.949 137.59 289.293C133.399 286.186 127.888 281.144 121.828 273.142C121.48 272.68 121.132 272.212 120.797 271.756C120.529 271.388 120.268 271.027 120.007 270.665C111.778 259.142 107.694 248.73 105.658 243.54C104.841 241.458 104.051 239.289 103.308 237.092C97.4089 219.63 95.2796 201.819 97.1478 186.72C97.5562 183.379 98.1655 180.165 98.9757 177.125C99.7055 174.379 100.978 171.848 102.759 169.599C108.223 162.675 114.704 156.026 122.009 149.833C126.998 145.601 132.354 141.603 137.925 137.948C144.333 133.729 151.015 129.973 157.778 126.772C165.371 123.177 173.024 120.297 180.564 118.195C180.945 118.088 181.314 117.987 181.682 117.887C184.574 117.11 187.601 116.929 190.674 117.365C197.752 118.362 205.204 120.585 212.717 123.893C224.783 129.183 237.009 137.238 248.144 147.395C249.035 148.199 249.965 149.076 251.003 150.08C257.284 156.12 262.928 162.622 267.769 169.404C271.613 174.774 274.914 180.278 277.585 185.769C278.329 187.296 279.025 188.822 279.668 190.342C280.886 193.228 281.924 196.094 282.768 198.899C284.181 203.6 284.074 208.622 282.467 213.041Z" fill="black"/><path d="M282.483 213.022C281.09 216.865 279.249 220.803 277.012 224.76H276.892L276.021 226.454C272.332 232.674 267.692 238.875 262.235 244.901C253.591 254.469 243.239 263.241 231.481 270.974C217.889 279.907 203.205 286.817 189.017 290.961C180.613 293.419 172.491 294.899 164.872 295.347H164.764C160.312 295.615 156.027 295.508 152.022 295.039L151.815 294.972H151.44C150.831 294.912 148.233 294.624 145.702 293.941C145.648 293.921 142.535 292.93 137.606 289.274C152.109 290.178 170.657 289.301 190.925 283.067C190.925 283.067 230.309 270.954 259.67 237.656C269.46 226.561 273.731 218.051 276.222 210.498C278.74 202.858 279.55 195.867 279.684 190.323C280.903 193.209 281.94 196.075 282.784 198.88C284.197 203.581 284.09 208.603 282.483 213.022Z" fill="#D4D4D4"/><path d="M212.699 123.891C206.351 122.532 197.567 121.447 187.356 122.625C184.148 122.994 174.895 124.272 158.865 131.765C143.345 139.01 118.088 150.808 102.153 177.176C100.09 180.59 98.4432 183.825 97.1309 186.717C97.5393 183.376 98.1486 180.162 98.9588 177.122C99.6886 174.377 100.961 171.846 102.742 169.596C108.206 162.673 114.687 156.024 121.992 149.83C126.98 145.598 132.337 141.601 137.908 137.945C144.316 133.727 150.998 129.97 157.761 126.77C165.353 123.174 173.007 120.295 180.546 118.193C180.928 118.086 181.296 117.985 181.664 117.885C184.557 117.108 187.583 116.927 190.657 117.362C197.734 118.36 205.186 120.583 212.699 123.891Z" fill="#D4D4D4"/><path d="M277.558 185.787C274.886 180.296 271.585 174.792 267.742 169.422C262.901 162.639 257.256 156.138 250.976 150.098C249.938 149.094 249.007 148.217 248.117 147.413C236.981 137.256 224.755 129.201 212.689 123.911C206.342 122.552 197.557 121.467 187.346 122.645C184.139 123.014 174.885 124.293 158.855 131.785C143.335 139.03 118.078 150.828 102.142 177.196C100.08 180.611 98.433 183.845 97.1206 186.738C95.2525 201.837 97.3817 219.648 103.281 237.11C104.024 239.306 104.814 241.476 105.631 243.558C107.666 248.748 111.751 259.16 119.98 270.683L120.77 271.433V271.774C121.105 272.23 121.453 272.698 121.801 273.16C127.861 281.162 133.371 286.204 137.563 289.311C152.066 290.215 170.613 289.338 190.881 283.104C190.881 283.104 230.266 270.991 259.627 237.693C269.416 226.598 273.688 218.087 276.178 210.535C278.696 202.895 279.506 195.904 279.64 190.36C278.997 188.84 278.301 187.313 277.558 185.787ZM128.966 219.822C123.047 222.286 115.286 217.143 111.63 208.352C107.974 199.553 109.809 190.434 115.728 187.97C121.647 185.512 129.401 190.648 133.057 199.446C136.713 208.245 134.878 217.364 128.966 219.822ZM176.599 151.29C182.518 148.833 190.279 153.968 193.934 162.767C197.59 171.565 195.756 180.685 189.837 183.142C183.924 185.606 176.164 180.464 172.508 171.672C168.852 162.874 170.687 153.754 176.599 151.29ZM201.648 263.552C195.849 266.84 189.683 268.252 183.657 268.252C172.635 268.252 162.089 263.512 155.186 256.789C148.115 249.906 144.861 242.895 145.511 235.952C146.468 225.66 155.548 219.802 166.067 213.025C179.907 204.107 192.977 195.683 205.478 201.448C216.184 206.383 219.512 218.737 220.443 223.819C223.289 239.333 215.562 255.671 201.648 263.552Z" fill="white"/><path d="M325.146 142.797C320.532 135.325 314.821 129.318 308.935 125.288C308.507 124.993 308.078 124.712 307.643 124.437C304.891 123.62 302.226 123.486 299.823 124.116C298.758 124.39 297.74 124.819 296.789 125.408C296.575 125.542 296.361 125.683 296.153 125.837C295.946 125.984 295.745 126.145 295.544 126.305C295.457 126.372 295.37 126.446 295.29 126.52C295.129 126.667 294.968 126.814 294.808 126.975C294.654 127.129 294.5 127.283 294.352 127.45C294.258 127.544 294.171 127.644 294.091 127.752C293.971 127.886 293.857 128.026 293.75 128.173C293.663 128.287 293.582 128.401 293.502 128.515C293.422 128.622 293.348 128.722 293.281 128.836C293.134 129.044 292.993 129.265 292.872 129.493C292.785 129.633 292.705 129.774 292.631 129.914C292.518 130.122 292.41 130.336 292.31 130.55C292.297 130.577 292.283 130.604 292.27 130.624C292.169 130.845 292.076 131.066 291.982 131.287C291.915 131.454 291.848 131.622 291.788 131.796C291.741 131.903 291.707 132.017 291.667 132.124C291.594 132.338 291.527 132.552 291.46 132.773C289.324 140.025 291.62 150.41 297.459 159.878C303.452 169.587 311.687 176.162 319.133 177.421C319.997 177.568 320.84 177.642 321.677 177.642C321.785 177.642 321.892 177.635 321.999 177.635C324.195 177.589 326.204 177.019 327.958 175.935C331.045 174.026 332.953 170.765 333.69 166.694C332.953 159.222 330.087 150.825 325.139 142.797H325.146ZM326.204 173.082C324.932 173.866 323.492 174.254 321.925 174.288C315.27 174.442 306.492 168.141 300.305 158.117C294.828 149.232 292.872 139.831 294.674 133.718C295.383 131.314 296.676 129.412 298.55 128.254C305.219 124.143 316.816 130.845 324.449 143.226C332.083 155.606 332.866 168.971 326.204 173.082ZM324.054 188.362C324.128 188.57 324.202 188.777 324.269 188.992C324.878 188.73 325.474 188.422 326.05 188.067C326.451 187.82 326.847 187.552 327.215 187.257L324.054 188.362Z" stroke="black" stroke-width="10" stroke-miterlimit="10"/><path d="M327.226 187.252L324.065 188.357C324.139 188.564 324.213 188.772 324.28 188.986C323.295 189.415 322.271 189.723 321.206 189.923C314.35 191.202 305.933 187.948 298.2 181.346C299.807 181.929 306.589 184.165 313.854 180.904C316.057 179.913 317.805 178.641 319.144 177.416C320.008 177.563 320.851 177.637 321.688 177.637C321.795 177.637 321.903 177.63 322.01 177.63C324.206 177.583 326.215 177.014 327.969 175.929C331.056 174.021 332.964 170.76 333.7 166.689C334.598 175.635 332.448 183.234 327.219 187.252H327.226Z" fill="#287C58" stroke="black" stroke-width="10" stroke-miterlimit="10"/><path d="M319.12 177.426C317.781 178.651 316.033 179.923 313.831 180.914C306.566 184.175 299.783 181.938 298.176 181.356H298.169C293.743 177.573 289.538 172.692 285.99 166.94C277.285 152.832 275.042 137.572 279.401 128.258C280.238 126.471 281.316 124.904 282.635 123.605C283.03 123.216 283.452 122.848 283.894 122.507C284.275 122.205 284.67 121.931 285.086 121.676C286.07 121.067 287.114 120.598 288.213 120.25C289.384 119.882 290.61 119.661 291.875 119.581C294.192 119.427 296.656 119.748 299.18 120.498C301.952 121.315 304.805 122.647 307.63 124.442C304.878 123.625 302.213 123.491 299.81 124.12C298.745 124.395 297.727 124.823 296.776 125.413C296.562 125.547 296.348 125.687 296.14 125.841C296.033 125.915 295.933 125.988 295.832 126.069C295.732 126.149 295.631 126.23 295.531 126.31C295.444 126.377 295.357 126.45 295.277 126.524C295.116 126.671 294.955 126.819 294.794 126.979C294.714 127.053 294.634 127.133 294.567 127.214C294.486 127.294 294.413 127.374 294.339 127.455C294.245 127.549 294.158 127.649 294.078 127.756C293.957 127.89 293.844 128.031 293.737 128.178C293.649 128.292 293.569 128.406 293.489 128.519C293.408 128.627 293.335 128.727 293.268 128.841C293.121 129.048 292.98 129.269 292.859 129.497C292.772 129.631 292.692 129.772 292.618 129.919C292.505 130.126 292.397 130.334 292.297 130.555C292.284 130.582 292.27 130.609 292.257 130.629C292.243 130.649 292.237 130.676 292.23 130.696C292.136 130.89 292.049 131.091 291.969 131.292C291.902 131.459 291.835 131.626 291.775 131.8C291.728 131.908 291.694 132.021 291.654 132.128C291.58 132.343 291.514 132.557 291.447 132.778C289.311 140.03 291.607 150.415 297.446 159.883C303.439 169.591 311.674 176.167 319.12 177.426Z" fill="#3AB984" stroke="black" stroke-width="10" stroke-miterlimit="10"/><path d="M327.302 141.471C323.673 135.592 319.24 130.932 314.701 127.865C314.667 127.845 314.64 127.832 314.607 127.812C312.283 126.245 309.933 125.107 307.643 124.437C304.891 123.62 302.226 123.486 299.823 124.116C298.758 124.39 297.74 124.819 296.789 125.408C296.575 125.542 296.361 125.683 296.153 125.837C295.946 125.984 295.745 126.145 295.544 126.305C295.457 126.372 295.37 126.446 295.29 126.52C295.129 126.667 294.968 126.814 294.808 126.975C294.654 127.129 294.5 127.283 294.352 127.45C294.258 127.544 294.171 127.644 294.091 127.752C293.971 127.886 293.857 128.026 293.75 128.173C293.663 128.287 293.582 128.401 293.502 128.515C293.422 128.622 293.348 128.723 293.281 128.836C293.134 129.044 292.993 129.265 292.872 129.493C292.785 129.633 292.705 129.774 292.631 129.914C292.518 130.122 292.41 130.336 292.31 130.55C292.297 130.577 292.283 130.604 292.27 130.624C292.169 130.845 292.076 131.066 291.982 131.287C291.915 131.454 291.848 131.622 291.788 131.796C291.741 131.903 291.707 132.017 291.667 132.124C291.594 132.338 291.527 132.553 291.46 132.774C289.324 140.025 291.62 150.41 297.459 159.878C303.452 169.587 311.688 176.163 319.133 177.421C319.997 177.569 320.841 177.642 321.678 177.642C321.785 177.642 321.892 177.636 321.999 177.636C324.195 177.589 326.204 177.02 327.958 175.935C331.045 174.027 332.953 170.766 333.69 166.695C334.955 159.731 332.806 150.404 327.295 141.471H327.302ZM324.45 170.237C323.914 170.565 323.331 170.772 322.669 170.873H322.662C322.401 170.913 322.14 170.933 321.852 170.94C321.785 170.947 321.724 170.947 321.664 170.947C315.424 170.947 307.65 163.641 303.157 156.363C298.363 148.582 296.294 140.072 297.888 134.668C298.383 132.988 299.193 131.789 300.305 131.106C301.081 130.631 302.019 130.396 303.083 130.396C308.058 130.396 315.745 135.485 321.604 144.987C322.294 146.105 322.916 147.223 323.479 148.321C323.479 148.321 323.479 148.326 323.479 148.335C326.17 153.644 327.389 158.68 327.389 162.637C327.389 166.32 326.338 169.065 324.443 170.237H324.45Z" fill="black"/><path d="M324.668 162.351C324.306 165.632 323.529 168.497 322.665 170.868H322.659C322.398 170.908 322.137 170.928 321.849 170.935C321.782 170.941 321.721 170.941 321.661 170.941C315.421 170.941 307.647 163.636 303.154 156.358C298.36 148.577 296.291 140.067 297.885 134.664C298.38 132.983 299.19 131.784 300.302 131.101C301.078 130.626 302.016 130.392 303.08 130.392C308.055 130.392 315.742 135.48 321.601 144.982C322.291 146.1 322.913 147.218 323.476 148.316C323.476 148.316 323.476 148.321 323.476 148.33C324.56 152.24 325.25 157.014 324.661 162.351H324.668Z" fill="white"/><path d="M327.394 162.592C327.394 166.275 326.343 169.02 324.448 170.192C323.912 170.52 323.33 170.728 322.667 170.828C323.531 168.458 324.307 165.592 324.669 162.311C325.258 156.975 324.569 152.2 323.484 148.29C326.176 153.6 327.394 158.635 327.394 162.592Z" fill="#D4D4D4"/><path d="M193.801 381.939V384.637L192.703 384.878H192.69L192.228 384.985C192.147 385.006 192.067 385.019 191.987 385.039L191.163 385.22C190.775 385.307 190.38 385.387 189.991 385.468H189.985C189.784 385.514 189.59 385.555 189.389 385.595C181.662 387.168 173.741 388.079 165.766 388.32C165.144 388.333 164.514 388.347 163.891 388.36H163.784C163.175 388.374 162.566 388.38 161.95 388.38H161.568C161.327 388.38 161.086 388.38 160.845 388.374C160.155 388.374 159.486 388.367 158.809 388.347H158.722C157.671 388.333 156.64 388.3 155.629 388.253H155.582C153.165 388.153 150.741 387.985 148.331 387.758C147.601 387.684 146.878 387.61 146.154 387.53H146.128C145.023 387.409 143.918 387.275 142.82 387.128C141.414 386.941 140.095 386.74 138.789 386.519L138.595 386.485C136.265 386.097 133.935 385.648 131.611 385.133C130.727 384.945 129.844 384.738 128.966 384.53C128.873 384.51 128.786 384.483 128.692 384.463C126.71 383.981 124.735 383.459 122.78 382.89C99.2575 376.073 77.8579 363.037 60.8843 345.199C60.8843 345.199 60.8776 345.185 60.8709 345.179C60.7972 345.105 60.7236 345.031 60.6566 344.951C47.7004 331.278 37.8175 315.443 31.2891 297.866C31.2757 297.853 31.269 297.839 31.269 297.826C31.2556 297.799 31.2422 297.772 31.2355 297.746C30.5325 295.844 29.8629 293.929 29.2603 292.047L29.2335 291.974C29.2335 291.974 29.2268 291.954 29.2268 291.947L29.0996 291.552V291.023H32.4609L35.6346 289.999C35.6547 290.059 35.6681 290.112 35.6949 290.173C35.6949 290.173 35.6949 290.193 35.6949 290.199C36.2507 291.92 36.86 293.675 37.5095 295.415C41.9487 307.388 48.0285 318.523 55.6415 328.667H55.6482C58.4738 332.437 61.5204 336.072 64.7678 339.554C65.0423 339.856 65.3235 340.15 65.6048 340.445C67.5264 342.474 69.5151 344.436 71.5573 346.33C86.6695 360.378 104.869 370.723 124.641 376.462C129.576 377.895 134.638 379.046 139.693 379.883L139.894 379.917C141.133 380.124 142.378 380.312 143.71 380.486C147.694 381.028 151.759 381.39 155.796 381.557H155.883C157.705 381.644 159.62 381.684 161.568 381.684H161.936C169.235 381.664 176.506 381.048 183.63 379.85C184.796 379.656 185.954 379.448 187.106 379.22L189.784 378.658C190.313 378.551 190.828 378.437 191.351 378.316L191.364 378.377L192.194 381.939H193.801Z" fill="black"/><path d="M60.8377 257.392L59.9606 264.034C59.2508 263.94 58.5411 263.88 57.8447 263.853C57.5635 263.84 57.2823 263.833 57.0011 263.833C44.9821 263.833 35.1996 273.609 35.1996 285.628C35.1996 287.168 35.367 288.708 35.6817 290.194C35.6817 290.194 35.6817 290.215 35.6817 290.221C35.6884 290.255 35.695 290.288 35.7017 290.322L35.7553 290.569C36.1236 292.156 36.6659 293.69 37.369 295.136L31.3495 298.069C31.3227 298.009 31.2892 297.948 31.2691 297.888C31.2557 297.875 31.249 297.861 31.249 297.848C30.3585 295.986 29.6755 294.018 29.2135 291.996C29.2068 291.989 29.2068 291.976 29.2068 291.969C29.1867 291.902 29.1733 291.835 29.16 291.768L29.0796 291.393C28.6912 289.505 28.4971 287.57 28.4971 285.628C28.4971 270.214 40.8039 257.619 56.1105 257.151C56.4051 257.144 56.6997 257.137 56.9944 257.137C58.2532 257.137 59.5455 257.224 60.8311 257.392H60.8377Z" fill="black"/><path d="M104.03 299.13L103.943 299.023L102.524 297.222L102.51 297.202C102.249 296.874 101.988 296.539 101.734 296.197L101.432 295.802C88.2952 278.454 82.0146 262.424 78.9881 254.717C77.8164 251.744 76.7183 248.737 75.7273 245.778C74.5689 242.356 73.4976 238.868 72.5468 235.413C72.1049 233.819 71.6965 232.259 71.3282 230.786L70.4779 227.344L69.8685 227.532L67.0965 228.389C66.2997 228.637 65.523 228.945 64.7865 229.313C64.5789 229.42 64.3714 229.527 64.1705 229.641C64.1236 229.668 64.0767 229.694 64.0299 229.721C62.3225 230.706 60.8494 232.005 59.6174 233.591C58.6733 234.817 57.8698 236.21 57.2203 237.776C57.0797 238.118 56.9391 238.473 56.8186 238.828C55.0241 243.843 54.8032 250.19 56.1423 257.134C56.4235 258.6 56.7784 260.087 57.2002 261.6C57.4078 262.343 57.6288 263.093 57.8698 263.837C59.3228 268.363 61.3315 272.862 63.8625 277.242C64.0901 277.63 64.3178 278.018 64.5588 278.407C65.7574 280.409 67.0429 282.33 68.3955 284.152C71.6228 288.504 75.2318 292.3 79.0685 295.347C83.2399 298.675 87.4582 300.938 91.4824 302.063C93.4375 302.612 95.3525 302.887 97.1871 302.887C97.6022 302.887 98.0107 302.873 98.4191 302.84C99.1423 302.793 99.852 302.699 100.548 302.558L105.878 301.474L104.03 299.13ZM83.2399 290.111C79.1957 286.897 75.4059 282.705 72.125 277.837C71.268 276.565 70.4444 275.253 69.661 273.894C66.9961 269.28 64.974 264.54 63.6482 259.799C62.6974 256.397 62.1551 253.11 62.0212 250.083C61.8471 246.32 62.3024 242.972 63.4005 240.354C64.0433 238.807 64.8936 237.549 65.9248 236.591C65.985 236.792 66.0386 236.993 66.0922 237.194C66.5943 239.015 67.13 240.85 67.6924 242.678C68.2281 244.432 68.7972 246.18 69.3798 247.914C70.4109 250.974 71.5492 254.087 72.7611 257.167C74.9238 262.685 78.7002 272.327 85.3558 283.73C87.552 287.493 90.0629 291.45 92.9219 295.508C89.8754 294.584 86.5543 292.756 83.2399 290.111Z" fill="black"/><path d="M67.6803 242.681C66.8835 243.364 66.0599 244.174 65.243 245.132C63.8034 246.819 62.7589 248.527 62.009 250.087C61.8349 246.324 62.2902 242.976 63.3883 240.358C64.0311 238.811 64.8814 237.552 65.9126 236.595C65.9728 236.796 66.0264 236.996 66.08 237.197C66.5822 239.019 67.1178 240.853 67.6803 242.681Z" fill="#80FFC1"/><path d="M92.9081 295.493C89.8616 294.569 86.5405 292.741 83.2261 290.096C79.1818 286.882 75.392 282.69 72.1111 277.822C74.1064 279.436 76.624 281.036 79.7041 282.215C81.7195 282.985 83.6278 283.447 85.3419 283.715C87.5381 287.478 90.0491 291.435 92.9081 295.493Z" fill="#287C58"/><path d="M85.3612 283.719C83.6471 283.451 81.7388 282.989 79.7234 282.219C76.6434 281.041 74.1258 279.44 72.1305 277.827C71.2734 276.554 70.4498 275.242 69.6664 273.883C67.0015 269.269 64.9794 264.529 63.6537 259.788C62.7029 256.387 62.1605 253.099 62.0266 250.073C62.7765 248.512 63.8211 246.805 65.2606 245.118C66.0775 244.16 66.9011 243.35 67.6979 242.667C68.2335 244.421 68.8027 246.169 69.3852 247.903C70.4163 250.963 71.5546 254.077 72.7665 257.157C74.9293 262.674 78.7057 272.316 85.3612 283.719Z" fill="#3AB984"/><path d="M355.107 309.708C346.536 300.662 332.79 295.265 320.075 295.962C311.738 296.424 304.956 299.571 300.965 304.833C298.876 307.605 297.537 310.933 296.994 314.757C296.874 315.547 296.794 316.357 296.747 317.187C296.66 318.741 296.693 320.287 296.82 321.78C297.189 326.434 298.387 330.632 299.358 333.404C298.307 337.02 298.247 341.145 299.231 345.537C300.63 351.798 304.065 358.025 308.424 362.183C313.995 367.499 322.411 370.512 331.39 370.512C332.428 370.512 333.473 370.472 334.517 370.392C336.258 370.251 337.972 370.01 339.64 369.662C343.014 368.972 346.208 367.867 349.134 366.394C353.667 364.125 357.577 360.971 360.537 357.107C361.026 356.478 361.494 355.808 361.936 355.125C364.273 351.516 365.78 347.472 366.422 343.1C366.523 342.424 366.597 341.741 366.65 341.051C367.521 330.257 363.121 318.171 355.107 309.708ZM356.312 351.49C355.97 352.019 355.609 352.527 355.227 353.023C350.554 359.136 342.813 363.026 334.002 363.716C325.739 364.359 317.905 361.975 313.044 357.342C303.73 348.443 303.884 335.795 308.089 331.001C309.274 329.641 310.734 328.677 312.308 328.001C315.046 326.809 318.106 326.494 320.597 326.494C323.416 326.494 325.505 326.903 325.558 326.909C327.366 327.278 329.134 326.106 329.502 324.291C329.87 322.484 328.699 320.716 326.884 320.348C325.686 320.106 317.303 318.58 309.823 321.76C307.795 322.617 305.833 323.823 304.099 325.49C303.617 323.12 303.288 320.415 303.422 317.716C303.436 317.609 303.442 317.495 303.442 317.381C303.516 316.236 303.677 315.152 303.918 314.134C304.387 312.112 305.19 310.351 306.308 308.871C309.08 305.208 314.102 302.999 320.443 302.651C331.109 302.068 343.088 306.755 350.246 314.315C356.118 320.515 361.347 331.523 359.794 342.129C359.445 344.513 358.776 346.762 357.785 348.851C357.35 349.762 356.861 350.639 356.312 351.49Z" fill="black"/><path d="M359.79 342.158C359.442 344.542 358.772 346.791 357.781 348.881C351.253 353.246 338.866 359.641 327.898 354.458C323.084 352.182 318.109 347.461 315.404 341.683C312.973 336.48 313.516 332.824 312.304 328.03C315.042 326.838 318.102 326.523 320.593 326.523C323.412 326.523 325.501 326.932 325.555 326.938C327.363 327.307 329.13 326.135 329.499 324.32C329.867 322.513 328.695 320.745 326.88 320.377C325.682 320.136 317.299 318.609 309.82 321.789C308.079 318.575 305.923 316.064 303.914 314.163C304.383 312.141 305.186 310.38 306.304 308.9C309.076 305.237 314.098 303.028 320.439 302.68C331.106 302.097 343.084 306.784 350.242 314.344C356.114 320.544 361.343 331.552 359.79 342.158Z" fill="white"/><path d="M357.784 348.89C357.348 349.8 356.86 350.678 356.311 351.528C355.969 352.057 355.608 352.566 355.226 353.061C350.552 359.175 342.812 363.065 334 363.755C325.738 364.397 317.904 362.014 313.043 357.38C303.729 348.481 303.883 335.833 308.088 331.039C309.273 329.68 310.733 328.715 312.306 328.039C313.518 332.833 312.976 336.489 315.406 341.692C318.111 347.47 323.086 352.191 327.901 354.467C338.868 359.65 351.255 353.256 357.784 348.89Z" fill="#D4D4D4"/><path d="M101.691 250.891L101.63 250.81L101.624 250.817L101.63 250.81L101.061 250.014L104.014 248.534L104.496 248.078L106.431 246.157L104.791 247.797L106.471 246.197L107.047 247.02L104.088 248.5L101.691 250.891Z" fill="black"/><path d="M304.686 254.667C304.304 254.138 303.922 253.609 303.527 253.08L308.917 249.103C309.319 249.645 309.714 250.188 310.103 250.73L304.686 254.661V254.667Z" fill="black"/><path d="M384.997 346.087C384.93 346.542 384.856 346.998 384.776 347.46C384.515 348.919 384.207 350.332 383.859 351.671C383.665 352.401 383.457 353.118 383.223 353.814C382.238 356.887 380.959 359.646 379.406 362.05C379.192 362.385 378.971 362.706 378.743 363.027C378.054 364.012 377.304 364.942 376.5 365.813C375.978 366.389 375.422 366.938 374.853 367.453C374.13 368.11 373.38 368.705 372.603 369.255C372.396 369.402 372.188 369.542 371.98 369.683C371.686 369.884 371.371 370.092 371.03 370.292C370.782 370.446 370.521 370.6 370.253 370.748C365.76 373.252 361.046 374.116 356.681 374.116C349.938 374.116 344.012 372.053 340.986 370.761C340.417 370.52 339.948 370.145 339.607 369.683C338.924 368.759 338.729 367.507 339.212 366.375C339.935 364.675 341.897 363.878 343.604 364.601C344.669 365.056 346.63 365.806 349.101 366.416C354.009 367.627 360.946 368.27 366.992 364.896C367.447 364.648 367.856 364.393 368.251 364.126C368.372 364.045 368.492 363.965 368.606 363.878C368.606 363.878 368.61 363.876 368.619 363.871C369.229 363.443 369.804 362.987 370.36 362.485C371.639 361.327 372.791 359.961 373.775 358.421C375.308 356.057 376.52 353.211 377.384 349.964C377.685 348.812 377.953 347.58 378.181 346.308C379.111 340.898 378.984 336.063 378.924 333.733C378.783 328.51 377.812 323.669 376.266 319.17C371.505 305.309 361.314 294.723 353.353 286.447C343.731 276.45 332.496 268.194 319.821 261.806C315.877 259.818 311.792 258.01 307.574 256.383C307.213 256.235 306.871 256.108 306.536 255.981C306.53 255.981 306.53 255.974 306.523 255.974L306.188 255.854C305.552 255.613 305.03 255.197 304.668 254.682C304.253 254.119 304.025 253.43 304.025 252.72C304.025 252.332 304.092 251.93 304.24 251.535C304.869 249.874 306.684 249.004 308.358 249.526C308.424 249.54 308.491 249.56 308.558 249.586L308.88 249.707C309.081 249.787 309.282 249.861 309.489 249.941H309.496C309.663 250.008 309.837 250.075 310.005 250.142C310.319 250.263 310.627 250.383 310.935 250.51C329.215 257.688 345.104 268.214 358.16 281.787C368.847 292.895 384.977 309.655 385.62 333.526C385.673 335.722 385.807 340.57 384.997 346.087Z" fill="black"/><path d="M303.381 317.401C303.381 317.515 303.381 317.628 303.36 317.735C303.227 319.088 302.276 320.266 300.883 320.635C299.45 321.01 298.077 321.398 296.758 321.8C283.233 325.898 275.392 331.361 273.437 338.084C272.634 340.856 272.975 343.253 273.377 346.025C273.913 349.742 274.522 353.96 272.178 359.136C268.797 366.595 261.793 369.789 250.183 375.092C238.726 380.321 228.368 385.042 219.55 385.042C215.887 385.042 212.493 384.232 209.386 382.303C206.714 380.643 205.067 378.607 203.748 376.974C202.054 374.878 201.15 373.847 199.135 373.378C198.545 373.244 197.929 373.177 197.287 373.177C194.936 373.19 192.278 374.175 189.345 376.096C188.944 376.364 188.535 376.645 188.12 376.947C186.627 378.038 184.538 377.71 183.446 376.21C182.355 374.717 182.683 372.621 184.183 371.537C184.303 371.45 184.417 371.362 184.538 371.289C186.721 369.729 188.857 368.55 190.939 367.747C194.334 366.448 197.581 366.146 200.648 366.856C204.993 367.867 207.096 370.472 208.951 372.762C210.109 374.202 211.207 375.554 212.921 376.619C220.46 381.299 232.948 375.594 247.404 368.999C258.727 363.83 263.829 361.332 266.079 356.377C267.612 352.976 267.23 350.331 266.748 346.983C266.306 343.889 265.797 340.381 267.009 336.216C269.775 326.688 279.577 319.657 296.933 314.776C297.669 314.562 298.426 314.361 299.189 314.16C300.977 313.691 302.805 314.763 303.273 316.55C303.347 316.832 303.381 317.119 303.381 317.401Z" fill="black"/><path d="M83.6768 310.768C78.3335 313.171 72.9702 314.363 68.0689 314.363C61.8954 314.363 56.4518 312.482 52.6821 308.772C48.8923 305.036 47.8879 301.213 47.7138 298.655C47.1648 290.513 54.0212 282.351 64.5537 278.373C65.0625 278.179 65.5848 277.998 66.1138 277.824C67.8748 277.255 69.763 278.213 70.3321 279.967C70.8878 281.661 70.0241 283.469 68.3903 284.118C68.3234 284.145 68.2564 284.172 68.1895 284.192C60.8509 286.589 55.4809 291.423 54.5301 296.218C54.3962 296.887 54.3493 297.55 54.3962 298.206C54.4899 299.599 55.0859 301.742 57.3825 303.998C62.0762 308.625 71.544 308.893 80.9248 304.661C81.4805 304.413 82.0631 304.326 82.6322 304.38C83.7772 304.494 84.8418 305.203 85.3574 306.335C86.114 308.022 85.3641 310.004 83.6768 310.768Z" fill="black"/><path d="M112.921 315.059C112.666 315.788 112.358 316.612 111.997 317.509C111.28 319.237 110.343 321.232 109.111 323.348C106.399 328.015 102.301 333.298 96.1815 337.704C89.7468 342.351 83.0712 344.621 77.2526 345.645C75.2371 346 73.3221 346.208 71.5612 346.308C70.5166 346.375 69.5189 346.402 68.5882 346.402C66.1778 346.402 64.1757 346.228 62.7495 346.047C62.0197 345.953 61.3836 345.638 60.8881 345.176C60.8881 345.176 60.8814 345.163 60.8747 345.156C60.8011 345.083 60.7274 345.009 60.6605 344.929C60.0511 344.232 59.7364 343.295 59.857 342.304C60.0913 340.469 61.7653 339.17 63.6066 339.405C63.9548 339.451 64.3498 339.498 64.7784 339.532C65.9032 339.639 67.2826 339.719 68.8561 339.713C74.8956 339.679 83.8412 338.36 92.2712 332.274C98.1768 328.015 101.893 322.806 104.17 318.467C105.301 316.311 106.085 314.376 106.6 312.876C106.654 312.715 106.721 312.568 106.794 312.42C107.551 310.974 109.265 310.258 110.852 310.8C112.599 311.409 113.53 313.311 112.928 315.059H112.921Z" fill="black"/><path d="M321.215 189.92C314.359 191.199 305.942 187.945 298.209 181.343H298.202C293.776 177.56 289.571 172.679 286.022 166.927C277.318 152.819 275.075 137.559 279.434 128.245L266.31 110.294C261.877 107.006 253.347 100.967 242.982 95.041C238.904 92.7109 234.927 90.6285 231.09 88.7938C220.699 85.8745 206.852 83.5979 190.903 85.3254C172.57 87.3141 159.828 93.6483 146.081 100.558C120.483 113.434 104.548 128.895 95.0931 138.215C88.0023 145.212 82.8667 150.341 77.6172 158.758C71.6781 168.273 68.3101 177.654 66.355 185.561C65.8863 196.428 66.7701 208.066 69.0065 220.091C69.656 223.593 70.4394 227.196 71.3299 230.778C71.6982 232.258 72.1066 233.818 72.5485 235.411C73.4993 238.866 74.5707 242.355 75.729 245.776C76.72 248.736 77.8181 251.742 78.9898 254.715C82.0163 262.422 88.2969 278.452 101.434 295.801L101.735 296.196C101.99 296.537 102.251 296.872 102.512 297.2L102.525 297.22L103.945 299.021L104.032 299.128C110.594 307.284 116.801 313.136 121.97 317.187C125.934 318.064 130.393 318.868 135.288 319.47C135.288 319.47 142.492 320.629 151.378 320.629C152.543 320.629 153.734 320.608 154.946 320.562C186.128 319.423 215.884 307.445 215.884 307.445C215.884 307.445 267.596 286.634 303.485 239.375C313.709 225.903 317.974 215.137 319.896 205.32C321.088 199.214 321.295 193.877 321.215 189.92ZM288.754 215.324C287.033 220.071 284.697 224.932 281.824 229.78L280.96 231.474H280.793C277.043 237.541 272.47 243.567 267.18 249.412C258.155 259.396 247.368 268.542 235.135 276.59C220.993 285.884 205.693 293.082 190.869 297.408C181.95 300.019 173.293 301.586 165.137 302.054H165.037C163.35 302.162 161.682 302.208 160.049 302.208C156.962 302.208 153.962 302.034 151.09 301.693H150.755L150.581 301.639C149.57 301.532 146.764 301.184 143.932 300.421C143.805 300.387 131.377 296.852 116.486 277.186C106.462 263.962 101.709 251.823 99.4253 245.991C98.5615 243.808 97.7379 241.531 96.9612 239.235C89.3415 216.697 87.7211 193.429 92.5019 175.41C93.466 171.768 95.1467 168.413 97.4969 165.447C103.242 158.176 110.031 151.205 117.678 144.724C122.874 140.318 128.445 136.16 134.243 132.35C140.912 127.964 147.862 124.054 154.906 120.719C162.841 116.963 170.855 113.95 178.73 111.754C179.111 111.647 179.513 111.533 179.928 111.426C183.705 110.408 187.628 110.173 191.606 110.736C211.365 113.521 233.615 125.078 252.651 142.447C253.588 143.297 254.559 144.215 255.637 145.253C262.212 151.573 268.131 158.39 273.213 165.507C277.271 171.185 280.759 177.017 283.598 182.836C285.908 187.583 287.79 192.344 289.176 196.978C290.02 199.79 290.441 202.696 290.441 205.582C290.441 208.923 289.879 212.231 288.754 215.324Z" fill="#E3BA55"/><path d="M231.093 88.7839C220.702 85.8646 206.855 83.588 190.906 85.3155C172.573 87.3041 159.831 93.6384 146.084 100.548C120.487 113.424 104.551 128.885 95.0965 138.206C88.0057 145.203 82.8701 150.332 77.6206 158.748C71.6815 168.263 68.3136 177.644 66.3584 185.552C66.7133 177.336 67.8449 169.562 69.7397 162.418C70.791 158.474 72.6189 154.825 75.17 151.59C77.1653 149.066 79.2945 146.522 81.5041 144.038C87.6039 137.154 94.4604 130.472 101.879 124.178C108.789 118.326 116.208 112.782 123.928 107.713C132.773 101.894 142.027 96.685 151.428 92.2323C162.389 87.043 173.477 82.9184 184.377 79.9656C185.489 79.8116 191.475 79.0415 197.856 79.1955C206.989 79.4098 218.325 82.6974 231.093 88.7839Z" fill="#FFD68E"/><path d="M324.915 212.676C322.719 218.702 319.766 224.876 316.13 231.023L315.876 231.304L315.769 231.632C312.294 237.458 308.196 243.31 303.582 249.035C301.426 251.713 299.136 254.391 296.773 257.003C295.916 257.947 295.052 258.891 294.161 259.828C282.698 272.015 269.233 283.217 254.148 293.134C235.326 305.507 214.984 315.089 195.319 320.834C183.628 324.249 172.325 326.298 161.726 326.921H161.625C155.318 327.289 149.285 327.135 143.694 326.472L143.199 326.412C142.643 326.358 138.746 325.963 134.949 324.939C133.041 324.423 128.274 322.16 121.946 317.192C125.91 318.069 130.37 318.872 135.264 319.475C135.264 319.475 142.469 320.633 151.354 320.633C152.519 320.633 153.711 320.613 154.923 320.566C186.105 319.428 215.861 307.449 215.861 307.449C215.861 307.449 267.573 286.639 303.462 239.379C313.686 225.907 317.952 215.14 319.873 205.324C321.065 199.218 321.273 193.881 321.192 189.924C322.257 189.723 323.281 189.415 324.266 188.986C324.634 190.064 325.002 191.209 325.357 192.395C327.372 199.124 327.218 206.329 324.915 212.676Z" fill="#95803C"/><path d="M68.8565 339.709C67.283 339.716 65.9037 339.636 64.7788 339.529C61.5314 336.047 58.4848 332.411 55.6592 328.648C59.449 332.17 63.8347 335.92 68.8565 339.709Z" fill="#D4D4D4"/><path d="M82.6403 304.418C82.0712 304.364 81.4886 304.452 80.9329 304.699C71.5522 308.931 62.0844 308.663 57.3907 304.036C55.0941 301.78 54.4981 299.637 54.4044 298.245C54.3575 297.588 54.4044 296.925 54.5383 296.256C56.239 297.762 58.8303 299.557 62.3522 300.588C67.5749 302.101 70.7822 298.619 75.7705 299.865C78.7434 300.615 80.9932 302.496 82.6403 304.418Z" fill="#D4D4D4"/><path d="M104.176 318.453C101.899 322.792 98.1834 328.001 92.2777 332.26C83.8478 338.346 74.9023 339.665 68.8627 339.699C63.8409 335.909 59.4552 332.159 55.6654 328.637H55.6587C48.0456 318.487 41.9659 307.351 37.5266 295.379C36.8771 293.639 36.2678 291.884 35.7121 290.163C35.7121 290.157 35.7121 290.143 35.7121 290.137C35.3974 288.65 35.23 287.11 35.23 285.57C35.23 273.551 45.0125 263.775 57.0313 263.775C57.3125 263.775 57.5938 263.782 57.875 263.795C59.328 268.322 61.3367 272.821 63.8677 277.2C64.0953 277.589 64.323 277.977 64.564 278.365C54.0316 282.343 47.1752 290.505 47.7242 298.647C47.8983 301.205 48.9027 305.028 52.6925 308.764C56.4622 312.474 61.9058 314.355 68.0793 314.355C72.9806 314.355 78.3439 313.163 83.6871 310.76C85.3744 309.996 86.1243 308.014 85.3677 306.327C84.8521 305.195 83.7875 304.486 82.6425 304.372C80.9954 302.45 78.7456 300.569 75.7727 299.819C70.7844 298.573 67.5771 302.055 62.3544 300.542C58.8325 299.511 56.2412 297.716 54.5405 296.21C55.4913 291.416 60.8613 286.581 68.1998 284.184C68.2668 284.164 68.3337 284.137 68.4007 284.11C71.628 288.463 75.237 292.259 79.0737 295.306C83.2452 298.634 87.4635 300.897 91.4876 302.022C94.6614 307.05 98.8261 312.782 104.183 318.453H104.176Z" fill="white"/><path d="M106.786 312.446C106.712 312.594 106.645 312.741 106.591 312.902C106.076 314.401 105.293 316.336 104.161 318.493C98.8043 312.821 94.6396 307.09 91.4658 302.061C93.421 302.61 95.336 302.885 97.1706 302.885C97.5857 302.885 97.9942 302.871 98.4026 302.838C101.295 306.474 104.107 309.654 106.786 312.446Z" fill="#D4D4D4"/><path d="M394.23 473.19C390.869 487.76 382.934 498.976 372.462 503.971C369.797 505.243 365.485 506.736 359.52 507.091C336.232 498.641 310.179 475.5 292.931 460.167C278.401 447.258 271.062 440.736 197.289 373.196C197.932 373.196 198.548 373.263 199.137 373.396C201.152 373.865 202.056 374.896 203.75 376.992C205.069 378.626 206.717 380.661 209.388 382.322C212.495 384.25 215.89 385.061 219.552 385.061C228.371 385.061 238.729 380.34 250.185 375.111C261.796 369.808 268.799 366.614 272.181 359.155C274.524 353.979 273.915 349.76 273.379 346.044C272.977 343.272 272.636 340.875 273.439 338.103C275.395 331.38 283.235 325.917 296.761 321.819C297.129 326.472 298.327 330.671 299.298 333.443C298.247 337.058 298.187 341.183 299.171 345.575C300.57 351.836 304.005 358.063 308.364 362.221C313.935 367.538 322.352 370.551 331.331 370.551C332.368 370.551 333.413 370.511 334.457 370.43C336.198 370.29 337.912 370.049 339.58 369.7C339.921 370.162 340.39 370.537 340.959 370.778C343.985 372.071 349.911 374.133 356.654 374.133C361.019 374.133 365.733 373.269 370.226 370.765C370.494 370.618 370.755 370.464 371.003 370.31C371.331 371.167 371.645 372.017 371.96 372.861C378.89 391.475 384.722 408.616 389.289 423.822L389.436 424.325C390.815 428.938 392.134 433.565 393.353 438.091V438.446L393.561 438.848C394.183 441.165 394.766 443.421 395.308 445.611C396.547 455.252 396.205 464.627 394.23 473.19Z" fill="#E3BA55"/><path d="M319.793 261.796C299.807 294.11 276.037 311.432 262.223 319.895C248.778 328.124 180.596 367.268 125.316 335.296C119.109 331.707 113.732 327.609 109.092 323.343C110.324 321.228 111.261 319.232 111.978 317.505C124.405 328.881 133.076 331.338 133.196 331.372C137.167 332.436 141.097 332.898 142.303 333.019L142.477 333.073H142.805C146.715 333.541 150.82 333.776 155.065 333.776C157.308 333.776 159.591 333.715 161.901 333.581H162.008C173.137 332.925 184.975 330.789 197.181 327.227C217.476 321.295 238.447 311.432 257.818 298.696C273.338 288.492 287.205 276.948 299.023 264.387C299.941 263.416 300.845 262.438 301.728 261.461C303.355 259.653 304.962 257.818 306.509 255.97C306.844 256.097 307.185 256.225 307.547 256.372C311.765 257.999 315.85 259.807 319.793 261.796Z" fill="#95803C"/><path d="M183.658 379.864C176.534 381.063 169.262 381.679 161.964 381.699H161.596C159.647 381.699 157.732 381.659 155.911 381.579H155.824C151.787 381.404 147.722 381.043 143.738 380.5C142.406 380.326 141.16 380.139 139.922 379.931L139.721 379.898C134.666 379.061 129.604 377.909 124.669 376.476C104.896 370.738 86.6973 360.393 71.585 346.345C73.3459 346.245 75.2609 346.037 77.2763 345.682C85.3782 351.039 94.7857 356.228 105.546 360.654C134.813 372.686 161.04 373.644 176.675 372.881L183.658 379.864Z" fill="#95803C"/><path d="M378.199 346.339C377.971 347.612 377.703 348.844 377.402 349.995C376.538 353.243 375.326 356.088 373.793 358.452C372.809 359.992 371.657 361.358 370.378 362.516C369.822 363.019 369.246 363.474 368.637 363.902C368.637 363.902 368.633 363.905 368.624 363.909C368.51 363.996 368.389 364.077 368.269 364.157C367.874 364.425 367.465 364.679 367.01 364.927C360.964 368.302 354.027 367.659 349.119 366.447C353.652 364.177 357.562 361.023 360.522 357.16C361.011 356.53 361.479 355.861 361.921 355.178C364.258 351.569 365.765 347.525 366.407 343.152C366.508 342.476 366.582 341.793 366.635 341.103C372.983 333.544 375.373 324.966 376.284 319.201C377.83 323.701 378.801 328.542 378.942 333.765C379.002 336.095 379.129 340.929 378.199 346.339Z" fill="#95803C"/><path d="M366.62 341.061C367.491 330.267 363.092 318.182 355.077 309.718C346.506 300.672 332.76 295.275 320.045 295.972C311.708 296.434 304.926 299.581 300.935 304.844C298.846 307.616 297.507 310.943 296.964 314.767C279.609 319.648 269.806 326.679 267.041 336.207C265.829 340.371 266.338 343.88 266.78 346.973C267.262 350.321 267.644 352.966 266.11 356.368C263.861 361.323 258.758 363.82 247.436 368.989C232.98 375.585 220.492 381.289 212.953 376.609C211.239 375.544 210.141 374.192 208.982 372.752C207.128 370.462 205.025 367.858 200.679 366.847C197.613 366.137 194.365 366.438 190.971 367.737C188.346 365.835 184.71 363.679 180.13 362.22C177.88 361.503 175.832 361.088 174.138 360.847L173.789 360.499C172.484 359.187 170.361 359.187 169.055 360.499C167.743 361.805 167.743 363.92 169.055 365.233L176.662 372.839C161.027 373.603 134.8 372.645 105.533 360.613C94.7728 356.187 85.3653 350.998 77.2634 345.641C83.082 344.617 89.7577 342.347 96.1923 337.7C102.312 333.294 106.41 328.011 109.122 323.344C113.762 327.609 119.139 331.707 125.346 335.296C180.626 367.268 248.809 328.125 262.254 319.896C276.067 311.432 299.837 294.11 319.824 261.796C332.499 268.184 343.734 276.44 353.356 286.437C361.317 294.713 371.508 305.299 376.269 319.159C375.358 324.924 372.968 333.502 366.62 341.061Z" fill="#E3BA55"/><path d="M309.759 321.811C307.731 322.668 305.769 323.873 304.035 325.54C303.552 323.17 303.224 320.465 303.358 317.766C303.372 317.659 303.378 317.545 303.378 317.432C303.452 316.287 303.613 315.202 303.854 314.184C305.862 316.086 308.018 318.597 309.759 321.811Z" fill="#D4D4D4"/><path d="M288.254 120.215C287.155 120.564 286.111 121.032 285.127 121.642C284.712 121.896 284.316 122.171 283.935 122.472C283.493 122.813 283.071 123.182 282.676 123.57L277.527 116.519L272.05 109.027L267.577 102.907L241.35 67.0376C240.633 66.0533 240.332 64.8882 240.419 63.7634C240.419 63.7433 240.419 63.7299 240.426 63.7098C241.075 63.2076 241.691 63 241.892 62.9398C241.892 62.9398 242.2 62.6519 243.037 62.6519C243.733 62.6519 244.791 62.8527 246.345 63.5759C249.398 65.0021 275.953 102.632 288.254 120.215Z" fill="white"/><path d="M291.927 119.563C290.661 119.643 289.436 119.864 288.264 120.232C275.964 102.649 249.409 65.0181 246.356 63.5919C244.802 62.8688 243.744 62.6679 243.048 62.6679C242.211 62.6679 241.903 62.9558 241.903 62.9558C241.702 63.0161 241.086 63.2236 240.437 63.7258C240.557 62.3599 241.233 61.0475 242.425 60.177C243.302 59.5409 244.313 59.2329 245.324 59.2329C246.844 59.2329 248.338 59.9293 249.302 61.2484L291.927 119.563Z" fill="#D4D4D4"/></g></g><defs><clipPath id="clip0_692_709"><rect width="356" height="356" fill="white"/></clipPath><clipPath id="clip1_692_709"><rect width="356" height="356" rx="19" fill="white"/></clipPath></defs></svg>